<svg width="171" height="217" viewBox="0 0 171 217" fill="none" xmlns="http://www.w3.org/2000/svg">
<path d="M46.3333 51.7031C58.776 45.7188 72.8906 42.6302 87.7708 43.3073C132.307 45.349 168.385 81.7604 170.073 126.312C171.938 175.568 132.557 216.104 83.7135 216.104C74.1302 216.104 64.9167 214.547 56.3125 211.667C32.6979 203.781 13.6354 186 4.04688 163.25C4.03125 163.214 4.01563 163.177 4 163.135C1.23958 156.651 0 149.615 0 142.568V140.208H41.6771C42.6458 144.141 44.1667 147.859 46.151 151.271H46.2656C48.8906 155.792 52.2969 159.792 56.3125 163.089C63.7708 169.198 73.3073 172.885 83.7135 172.885C109.12 172.885 129.422 150.948 126.688 124.984C124.573 104.917 108.37 88.7708 88.2917 86.6875C70.4479 84.8385 54.5104 93.9688 46.3333 108.052H46.1667C44.2188 111.396 42.7083 115.036 41.7448 118.885H0V0L24.0781 11.1927L46.3333 21.5156V51.7031Z" fill="#6DACF6"/>
</svg>
