<svg width="890" height="218" viewBox="0 0 890 218" fill="none" xmlns="http://www.w3.org/2000/svg">
<path d="M87.8128 44.2553C72.9326 43.5782 58.818 46.6668 46.3753 52.6511V22.4636L24.1201 12.1407L0.0419922 0.947998V119.833H41.7868C42.7503 115.984 44.2607 112.344 46.2087 109H46.3753C54.5524 94.9167 70.4899 85.7865 88.3337 87.6355C108.412 89.7188 124.615 105.865 126.729 125.932C129.464 151.896 109.162 173.833 83.7555 173.833C73.3493 173.833 63.8128 170.146 56.3545 164.037C52.3389 160.74 48.9326 156.74 46.3076 152.219H46.193C44.2087 148.807 42.6878 145.089 41.7191 141.156H0.0419922V143.516C0.0419922 150.563 1.28158 157.599 4.04199 164.083C4.05762 164.125 4.07324 164.162 4.08887 164.198C13.6774 186.948 32.7399 204.729 56.3545 212.615C64.9587 215.495 74.1722 217.052 83.7555 217.052C132.599 217.052 171.979 176.516 170.115 127.26C168.427 82.7084 132.349 46.297 87.8128 44.2553ZM187.865 130.495V217.042H233.532V108.5L187.865 87.297V130.495ZM187.865 65.9792L233.532 87.1824V44.1928H187.865V65.9792ZM260.042 87.4688L326.037 87.2917L260.042 174.083V217.047H383.49V173.906L315.729 173.734L383.49 87.6407V43.9376H260.042V87.4688ZM630.469 113.406C632.401 104.245 636.339 97.3334 642.25 92.6459C648.172 87.9584 655.641 85.6147 664.688 85.6147C673.719 85.6147 680.979 87.9063 686.469 92.4792C691.959 97.0522 695.125 104.037 695.995 113.406H630.469ZM746.667 131.057C746.667 117.979 744.735 106.099 740.849 95.4115C736.979 84.7449 731.49 75.5834 724.396 67.9584C717.297 60.323 708.792 54.4428 698.896 50.3126C688.995 46.1615 677.917 44.0834 665.657 44.0834C653.381 44.0834 642.136 46.1615 631.927 50.3126C621.698 54.4428 612.979 60.323 605.771 67.9584C598.573 75.5834 592.922 84.698 588.839 95.2501C584.745 105.839 582.693 117.656 582.693 130.734C582.693 143.599 584.745 155.318 588.839 165.885C592.922 176.458 598.625 185.552 605.933 193.177C613.261 200.813 621.964 206.698 632.073 210.844C642.188 214.974 653.282 217.037 665.328 217.037C682.766 217.037 698.256 212.958 711.808 204.797C722.037 198.615 730 190.682 735.688 180.984L694.485 161.854C687.636 170.099 677.818 174.214 665 174.214C655.969 174.214 648.073 172.099 641.287 167.839C634.5 163.594 630.469 156.891 629.172 147.729H746.667V131.057ZM497.969 44.3282C488.381 44.3282 479.532 46.0678 471.401 49.5053C463.271 52.9792 456.881 57.6042 452.209 63.3907V43.9376H401.438V216.958H449.703V122.276C449.703 103.984 464.537 89.1511 482.823 89.1511H486.052C504.344 89.1511 519.177 103.984 519.177 122.276V216.958H567.443V113.573C567.443 91.9532 561.594 74.9897 549.907 62.7345C538.219 50.4584 520.896 44.3282 497.969 44.3282ZM889.959 165.458C889.959 181.13 884.141 193.651 872.521 203.01C860.886 212.365 844.396 217.037 823.073 217.037C802.589 217.037 786.693 212.693 775.381 203.99C767.615 198.026 762.026 190.651 758.584 181.901L800.75 162.328C801.193 166.823 803.209 170.412 806.75 173.13C810.589 176.063 815.813 177.542 822.438 177.542C827.974 177.542 832.349 176.458 835.547 174.276C838.761 172.099 840.349 169.052 840.349 165.135C840.349 159.479 836.302 155.563 828.188 153.38L808.032 147.828C790.526 143.042 778.151 136.516 770.907 128.24C763.646 119.964 760.026 109.948 760.026 98.198C760.026 90.3647 761.469 83.1407 764.354 76.4845C767.219 69.8438 771.334 64.1928 776.662 59.5053C782.006 54.8334 788.558 51.1303 796.344 48.4115C804.131 45.6876 812.927 44.3282 822.745 44.3282C839.594 44.3282 853.74 48.198 865.162 55.9167C875.552 62.9636 882.37 72.5678 885.584 84.7605L841.938 105.016V98.7397C841.495 94.2345 839.693 90.6772 836.516 88.0886C833.318 85.4636 829.256 84.172 824.354 84.172C819.651 84.172 815.813 85.3022 812.828 87.5938C809.834 89.8751 808.354 93.0886 808.354 97.2136C808.354 100.281 809.474 102.823 811.698 104.901C813.948 106.969 817.943 108.755 823.714 110.276L843.235 115.505C874.391 123.781 889.959 140.432 889.959 165.458Z" fill="#6DACF6"/>
</svg>
