<svg width="890" height="217" viewBox="0 0 890 217" fill="none" xmlns="http://www.w3.org/2000/svg">
<path d="M87.7708 43.3073C72.8906 42.6302 58.776 45.7188 46.3333 51.7031V21.5156L24.0781 11.1927L0 0V118.885H41.7448C42.7083 115.036 44.2187 111.396 46.1667 108.052H46.3333C54.5104 93.9687 70.4479 84.8385 88.2917 86.6875C108.37 88.7708 124.573 104.917 126.687 124.984C129.422 150.948 109.12 172.885 83.7135 172.885C73.3073 172.885 63.7708 169.198 56.3125 163.089C52.2969 159.792 48.8906 155.792 46.2656 151.271H46.151C44.1667 147.859 42.6458 144.141 41.6771 140.208H0V142.568C0 149.615 1.23959 156.651 4 163.135C4.01563 163.177 4.03125 163.214 4.04688 163.25C13.6354 186 32.6979 203.781 56.3125 211.667C64.9167 214.547 74.1302 216.104 83.7135 216.104C132.557 216.104 171.937 175.568 170.073 126.312C168.385 81.7604 132.307 45.349 87.7708 43.3073ZM187.823 129.547V216.094H233.49V107.552L187.823 86.349V129.547ZM187.823 65.0312L233.49 86.2344V43.2448H187.823V65.0312ZM260 86.5208L325.995 86.3437L260 173.135V216.099H383.448V172.958L315.687 172.786L383.448 86.6927V42.9896H260V86.5208ZM630.427 112.458C632.359 103.297 636.297 96.3854 642.208 91.6979C648.13 87.0104 655.599 84.6667 664.646 84.6667C673.677 84.6667 680.937 86.9583 686.427 91.5312C691.917 96.1042 695.083 103.089 695.953 112.458H630.427ZM746.625 130.109C746.625 117.031 744.693 105.151 740.807 94.4635C736.937 83.7969 731.448 74.6354 724.354 67.0104C717.255 59.375 708.75 53.4948 698.854 49.3646C688.953 45.2135 677.875 43.1354 665.615 43.1354C653.339 43.1354 642.094 45.2135 631.885 49.3646C621.656 53.4948 612.937 59.375 605.729 67.0104C598.531 74.6354 592.88 83.75 588.797 94.3021C584.703 104.891 582.651 116.708 582.651 129.786C582.651 142.651 584.703 154.37 588.797 164.937C592.88 175.51 598.583 184.604 605.891 192.229C613.219 199.865 621.922 205.75 632.031 209.896C642.146 214.026 653.24 216.089 665.286 216.089C682.724 216.089 698.214 212.01 711.766 203.849C721.995 197.667 729.958 189.734 735.646 180.036L694.443 160.906C687.594 169.151 677.776 173.266 664.958 173.266C655.927 173.266 648.031 171.151 641.245 166.891C634.458 162.646 630.427 155.943 629.13 146.781H746.625V130.109ZM497.927 43.3802C488.339 43.3802 479.49 45.1198 471.359 48.5573C463.229 52.0312 456.839 56.6562 452.167 62.4427V42.9896H401.396V216.01H449.661V121.328C449.661 103.036 464.495 88.2031 482.781 88.2031H486.01C504.302 88.2031 519.135 103.036 519.135 121.328V216.01H567.401V112.625C567.401 91.0052 561.552 74.0417 549.865 61.7865C538.177 49.5104 520.854 43.3802 497.927 43.3802ZM889.917 164.51C889.917 180.182 884.099 192.703 872.479 202.062C860.844 211.417 844.354 216.089 823.031 216.089C802.547 216.089 786.651 211.745 775.339 203.042C767.573 197.078 761.984 189.703 758.542 180.953L800.708 161.38C801.151 165.875 803.167 169.464 806.708 172.182C810.547 175.115 815.771 176.594 822.396 176.594C827.932 176.594 832.307 175.51 835.505 173.328C838.719 171.151 840.307 168.104 840.307 164.187C840.307 158.531 836.26 154.615 828.146 152.432L807.99 146.88C790.484 142.094 778.109 135.568 770.865 127.292C763.604 119.016 759.984 109 759.984 97.25C759.984 89.4167 761.427 82.1927 764.312 75.5365C767.177 68.8958 771.292 63.2448 776.62 58.5573C781.964 53.8854 788.516 50.1823 796.302 47.4635C804.089 44.7396 812.885 43.3802 822.703 43.3802C839.552 43.3802 853.698 47.25 865.12 54.9687C875.51 62.0156 882.328 71.6198 885.542 83.8125L841.896 104.068V97.7917C841.453 93.2865 839.651 89.7292 836.474 87.1406C833.276 84.5156 829.214 83.224 824.312 83.224C819.609 83.224 815.771 84.3542 812.786 86.6458C809.792 88.9271 808.312 92.1406 808.312 96.2656C808.312 99.333 809.432 101.875 811.656 103.953C813.906 106.021 817.901 107.807 823.672 109.328L843.193 114.557C874.349 122.833 889.917 139.484 889.917 164.51Z" fill="white"/>
</svg>
